<?xml version="1.0" standalone="no"?>
<!DOCTYPE svg PUBLIC "-//W3C//DTD SVG 20010904//EN"
 "http://www.w3.org/TR/2001/REC-SVG-20010904/DTD/svg10.dtd">
<svg version="1.0" xmlns="http://www.w3.org/2000/svg"
 width="700.000000pt" height="700.000000pt" viewBox="0 0 700.000000 700.000000"
 preserveAspectRatio="xMidYMid meet">
<metadata>
Created by potrace 1.14, written by Peter Selinger 2001-2017
</metadata>
<g transform="translate(0.000000,700.000000) scale(0.100000,-0.100000)"
fill="#000000" stroke="none">
<path d="M3278 6996 c-1 -2 -42 -6 -89 -10 -47 -4 -95 -8 -105 -10 -10 -2 -46
-7 -79 -11 -59 -7 -79 -10 -125 -20 -57 -12 -76 -16 -101 -19 -105 -16 -494
-137 -616 -192 -28 -13 -55 -24 -58 -24 -13 0 -309 -152 -383 -197 -145 -87
-368 -243 -434 -303 -9 -8 -41 -35 -72 -60 -61 -50 -308 -298 -374 -375 -411
-480 -687 -1070 -792 -1689 -22 -132 -25 -150 -37 -286 -15 -161 -8 -605 11
-707 2 -10 7 -43 10 -73 7 -62 12 -94 26 -165 6 -27 12 -59 14 -71 48 -250
159 -571 288 -829 227 -455 501 -801 914 -1155 83 -72 421 -310 440 -310 2 0
23 -12 46 -26 60 -38 299 -156 401 -198 175 -72 465 -162 614 -191 79 -15 253
-44 293 -49 169 -22 559 -28 735 -13 816 73 1565 421 2146 997 164 163 224
230 332 372 323 426 542 907 646 1425 16 81 33 177 37 213 3 36 8 68 10 71 18
31 25 546 11 714 -20 219 -60 438 -117 640 -25 89 -33 115 -52 170 -174 511
-455 962 -833 1340 -189 190 -214 212 -368 329 -382 289 -774 481 -1232 601
-129 34 -234 56 -330 71 -27 4 -57 9 -65 10 -8 2 -42 6 -76 9 -33 4 -74 9 -90
11 -33 5 -540 14 -546 10z m532 -629 c14 -3 48 -8 75 -12 110 -14 277 -49 409
-87 1092 -311 1912 -1257 2061 -2378 26 -201 35 -461 20 -609 -9 -84 -14 -136
-21 -188 -8 -60 -50 -273 -66 -327 -6 -23 -12 -46 -13 -51 -2 -6 -21 -66 -44
-133 -241 -723 -770 -1328 -1456 -1666 -280 -138 -620 -244 -870 -271 -33 -3
-67 -8 -75 -10 -8 -2 -62 -7 -120 -11 -829 -55 -1607 226 -2207 799 -421 402
-722 951 -832 1522 -22 114 -27 152 -46 335 -6 59 -7 386 -1 431 3 18 8 63 11
99 34 364 169 781 363 1120 14 25 63 101 108 170 341 517 887 935 1473 1130
91 30 257 76 304 84 15 3 35 7 45 10 9 3 35 7 56 11 21 3 48 7 60 10 29 6 78
12 161 20 39 4 72 9 73 10 6 6 505 -2 532 -8z"/>
<path d="M1808 5160 c-2 -8 -3 -715 -3 -1570 l1 -1555 332 0 c293 -1 332 1
332 15 1 34 -2 420 -5 635 -5 325 -14 988 -21 1545 -3 261 -7 514 -7 563 -1
48 1 87 5 87 5 0 8 -3 8 -8 0 -4 7 -39 15 -77 20 -91 55 -263 61 -295 2 -14 9
-45 14 -70 6 -25 13 -56 15 -70 3 -14 7 -36 10 -50 3 -14 7 -34 9 -45 2 -11
14 -65 25 -120 11 -55 43 -210 71 -345 28 -135 52 -252 55 -260 2 -8 7 -30 10
-47 13 -79 17 -100 36 -181 11 -48 21 -98 23 -112 2 -14 11 -59 20 -100 8 -41
17 -86 20 -100 3 -14 23 -113 46 -220 47 -225 80 -384 86 -420 2 -14 11 -56
20 -95 15 -74 19 -91 34 -169 6 -27 13 -52 16 -55 3 -3 215 -6 470 -6 408 0
465 1 468 15 4 14 10 43 20 95 2 11 18 85 35 165 16 80 32 156 35 170 3 14 9
48 15 75 6 28 13 61 15 75 3 14 10 45 15 70 21 93 61 286 66 315 2 17 18 91
34 166 17 74 33 151 36 170 3 19 11 54 16 79 6 25 13 56 15 70 3 14 38 185 79
380 41 195 76 369 79 385 3 17 30 149 61 295 31 146 58 278 61 293 3 16 8 26
11 23 5 -5 5 -147 -2 -546 -11 -670 -17 -972 -20 -1155 -2 -115 -7 -399 -11
-630 -3 -231 -7 -440 -8 -465 l-1 -45 333 -1 c294 0 332 2 333 15 0 9 1 711 2
1560 2 1087 -1 1548 -9 1555 -14 14 -1090 14 -1103 1 -7 -8 -32 -132 -107
-515 -11 -54 -76 -386 -79 -400 -2 -8 -37 -186 -79 -395 -41 -209 -77 -391
-80 -405 -6 -33 -133 -673 -152 -770 -9 -41 -18 -86 -20 -100 -12 -67 -46
-237 -50 -249 -3 -8 -6 -12 -8 -10 -3 3 -100 471 -151 729 -2 8 -38 186 -80
395 -42 209 -79 391 -81 405 -3 14 -12 59 -20 100 -19 90 -93 455 -100 490 -3
14 -18 90 -35 170 -16 80 -31 156 -34 170 -25 134 -78 386 -81 390 -3 2 -254
5 -559 5 -485 0 -554 -2 -557 -15z"/>
</g>
</svg>
