<svg xmlns="http://www.w3.org/2000/svg" style="isolation:isolate" viewBox="0 0 75 89.007" width="100" height="118.676"><defs><clipPath id="a"><path d="M0 0h75v89.007H0z"/></clipPath></defs><g clip-path="url(#a)" fill="#FFE600"><path d="M29.394.74c.687-.3 1.366-.44 2.052-.531.687-.076 1.366-.111 2.053-.028.686.084 1.365.273 2.051.356a6.741 6.741 0 0 0 2.053-.07C38.968.147 40.334.021 41.7 0c.686.007 1.365.091 2.052.202.686.119 1.366.265 2.052.538a.081.081 0 0 1 .049.104c-.007.021-.028.035-.049.049-.686.272-1.366.419-2.052.537-.687.112-1.366.196-2.052.203-1.366-.028-2.732-.154-4.097-.475a6.805 6.805 0 0 0-2.053-.07c-.686.084-1.365.273-2.051.356-.687.091-1.366.056-2.053-.028-.679-.09-1.365-.23-2.052-.53-.042-.021-.063-.07-.042-.112.014-.013.028-.027.042-.034ZM18.278 7.096c3.219-1.179 6.439-1.186 9.666-.482 1.613.3 3.219.258 4.833.175 1.606-.084 3.219-.321 4.833-.503 1.613-.174 3.219-.216 4.833-.3 1.606-.076 3.219-.111 4.833-.035 3.219.147 6.439.433 9.659 1.145.07.014.113.083.099.146a.14.14 0 0 1-.099.098c-3.22.712-6.44.991-9.659 1.144-1.607.077-3.22.042-4.833-.035-1.614-.083-3.22-.125-4.833-.3-1.607-.181-3.22-.418-4.833-.502-1.614-.084-3.22-.126-4.833.174-3.22.712-6.44.705-9.666-.481-.071-.028-.107-.098-.078-.168.014-.041.042-.062.078-.076ZM12.405 14.875c1.047-.488 2.101-.788 3.148-1.026a24.62 24.62 0 0 1 3.149-.467c2.102-.251 4.196.063 6.298.44l1.578.272c.524.104 1.047.195 1.578.265 1.047.132 2.102.139 3.149.084a19.878 19.878 0 0 0 1.571-.154c.523-.077 1.054-.16 1.578-.223l3.149-.419c2.101-.321 4.203-.404 6.297-.551 2.102-.14 4.197-.195 6.298-.077 2.102.105 4.196.3 6.298.586 2.101.3 4.203.663 6.298 1.27.106.035.17.147.141.258a.216.216 0 0 1-.141.14c-2.102.614-4.204.97-6.298 1.27a74.032 74.032 0 0 1-6.298.586c-2.101.118-4.196.062-6.298-.077-2.101-.146-4.203-.237-6.297-.551l-3.149-.426c-.524-.063-1.047-.146-1.578-.223a19.878 19.878 0 0 0-1.571-.154c-1.047-.055-2.102-.048-3.149.084-.524.07-1.054.161-1.578.265L25 16.319c-2.102.377-4.196.684-6.298.44a24.62 24.62 0 0 1-3.149-.467c-1.047-.238-2.101-.538-3.148-1.026a.213.213 0 0 1 0-.391ZM9.871 22.697c2.314-.915 4.621-1.319 6.935-1.591 2.307-.217 4.621-.398 6.934.042l3.468.53c1.153.181 2.314.335 3.467.433 1.154.09 2.314.167 3.467.076a31.06 31.06 0 0 0 3.468-.418l3.467-.545a63.993 63.993 0 0 1 3.467-.383c2.314-.189 4.621-.412 6.935-.356 2.307.056 4.621.286 6.935.621 2.313.349 4.62.809 6.934 1.591a.234.234 0 0 1 .149.306.256.256 0 0 1-.149.147c-2.314.788-4.621 1.242-6.934 1.591-2.314.335-4.621.558-6.935.621-2.314.056-4.621-.168-6.935-.356a64.784 64.784 0 0 1-3.467-.384l-3.467-.544a31.063 31.063 0 0 0-3.468-.419c-1.153-.09-2.313-.014-3.467.077a45.114 45.114 0 0 0-3.467.44l-3.468.53c-2.313.44-4.62.258-6.934.042-2.314-.272-4.621-.677-6.935-1.591a.248.248 0 0 1-.141-.321.27.27 0 0 1 .141-.139ZM65.334 31.899c-2.314.914-4.621 1.319-6.935 1.591-2.307.216-4.62.398-6.934-.042l-3.468-.53a49.348 49.348 0 0 0-3.467-.433c-1.153-.09-2.314-.167-3.467-.076a30.781 30.781 0 0 0-3.467.418l-3.468.544a63.01 63.01 0 0 1-3.467.384c-2.314.189-4.621.412-6.935.356-2.306-.056-4.62-.286-6.934-.621-2.314-.349-4.621-.809-6.935-1.591a.24.24 0 0 1-.149-.307.255.255 0 0 1 .149-.146c2.314-.789 4.621-1.242 6.935-1.591 2.314-.335 4.62-.558 6.934-.621 2.314-.056 4.621.168 6.935.356 1.153.091 2.314.23 3.467.384l3.468.544c1.153.202 2.313.349 3.467.419 1.153.09 2.314.013 3.467-.077a49.348 49.348 0 0 0 3.467-.433l3.468-.53c2.314-.44 4.62-.258 6.934-.042 2.314.272 4.621.677 6.935 1.591a.24.24 0 0 1 .134.321.269.269 0 0 1-.134.132ZM45.804 53.863c-.686.3-1.366.44-2.052.531-.687.076-1.366.111-2.052.028-.687-.084-1.366-.273-2.052-.356a6.765 6.765 0 0 0-2.052.069c-1.366.321-2.739.447-4.105.468-.686-.007-1.365-.091-2.052-.202-.686-.119-1.365-.273-2.052-.538a.082.082 0 0 1-.049-.104c.007-.021.028-.035.049-.049.687-.272 1.366-.419 2.052-.537.687-.112 1.366-.196 2.052-.203 1.366.021 2.732.147 4.105.468a6.758 6.758 0 0 0 2.052.069c.686-.083 1.365-.272 2.052-.355.686-.091 1.365-.056 2.052.021.679.09 1.366.23 2.052.53.042.021.064.07.042.111a.094.094 0 0 1-.042.049ZM56.928 47.507c-3.22 1.179-6.44 1.186-9.666.481-1.614-.3-3.22-.258-4.833-.174-1.607.084-3.22.321-4.833.503-1.614.174-3.22.216-4.833.3-1.614.076-3.22.111-4.833.034-3.22-.146-6.44-.432-9.659-1.144a.125.125 0 0 1-.1-.146.141.141 0 0 1 .1-.098c3.219-.712 6.439-.991 9.659-1.144 1.613-.077 3.219-.042 4.833.035 1.606.083 3.219.125 4.833.3 1.606.181 3.219.418 4.833.502 1.613.084 3.219.126 4.833-.174 3.219-.712 6.439-.705 9.666.481a.13.13 0 0 1 .077.167.139.139 0 0 1-.077.077ZM62.801 39.728c-1.047.488-2.102.788-3.149 1.025a24.422 24.422 0 0 1-3.149.468c-2.102.251-4.196-.063-6.298-.44l-1.578-.272a23.818 23.818 0 0 0-1.578-.265c-1.047-.133-2.101-.14-3.149-.084-.523.035-1.047.084-1.571.154-.523.076-1.054.16-1.578.223l-3.148.419c-2.102.321-4.204.404-6.298.551-2.102.139-4.196.195-6.298.077a74.07 74.07 0 0 1-6.298-.586c-2.101-.301-4.196-.663-6.297-1.27a.21.21 0 0 1-.142-.258.216.216 0 0 1 .142-.14c2.101-.614 4.203-.97 6.297-1.27a74.07 74.07 0 0 1 6.298-.586c2.102-.119 4.196-.063 6.298.077 2.102.146 4.196.237 6.298.551l3.148.426c.524.062 1.048.146 1.578.223a19.92 19.92 0 0 0 1.571.153c1.048.056 2.102.049 3.149-.083.524-.07 1.055-.161 1.578-.265l1.578-.273c2.102-.369 4.203-.683 6.298-.439 1.047.091 2.102.237 3.149.467 1.047.238 2.102.538 3.149 1.026.113.049.155.181.106.293a.355.355 0 0 1-.106.098ZM0 85.156v3.788h2.484v-.586H.771v-3.202H0ZM4.408 85.156l-1.323 3.788h.779l.261-.816h1.352l.262.816h.778l-1.316-3.788h-.793Zm.39.886h.014l.474 1.486h-.97l.482-1.486ZM7.31 88.944v-3.788h1.295c.452 0 .806.083 1.061.258.255.174.382.432.382.774a.805.805 0 0 1-.552.775c.234.048.404.153.517.314.113.16.17.342.17.551 0 .363-.121.635-.361.823-.241.189-.588.279-1.033.279H7.31v.014Zm.764-2.205h.552c.205 0 .361-.041.474-.125a.423.423 0 0 0 .17-.363c0-.174-.057-.307-.17-.391-.113-.083-.276-.125-.503-.125h-.53v1.004h.007Zm0 .531v1.088h.707c.206 0 .361-.042.468-.132.106-.084.162-.217.162-.391 0-.189-.042-.328-.134-.426-.092-.097-.234-.146-.432-.146h-.771v.007ZM11.209 85.156v3.788h2.625v-.586H11.98v-1.081h1.585v-.586H11.98v-.949h1.854v-.586h-2.625ZM14.74 85.156v3.788h2.483v-.586h-1.712v-3.202h-.771ZM20.712 86.788h-.771v.677h.771v-.677ZM23.422 85.156v3.788h2.632v-.586h-1.861v-1.081h1.592v-.586h-1.592v-.949h1.854v-.586h-2.625ZM29.033 87.953a.418.418 0 0 0-.155-.348c-.106-.091-.29-.175-.552-.252-.46-.132-.8-.286-1.04-.46a.882.882 0 0 1-.354-.733c0-.307.134-.565.403-.76.269-.196.609-.293 1.026-.293.425 0 .764.111 1.033.335.269.223.397.495.382.816l-.007.014h-.743a.539.539 0 0 0-.177-.426c-.12-.104-.283-.16-.502-.16-.205 0-.368.042-.481.132a.423.423 0 0 0-.17.349c0 .126.064.238.184.314.12.084.325.168.623.265.424.119.743.273.962.461.219.188.326.439.326.754a.888.888 0 0 1-.39.767c-.262.188-.601.279-1.026.279-.417 0-.785-.105-1.097-.321-.311-.209-.459-.509-.452-.893l.007-.014h.75c0 .223.071.391.212.495.142.105.333.161.587.161.213 0 .368-.042.482-.126a.452.452 0 0 0 .169-.356ZM30.534 85.156v.586h1.082v3.202h.772v-3.202h1.082v-.586h-2.936ZM36.676 85.156v1.625h-1.571v-1.625h-.772v3.788h.772v-1.577h1.571v1.577h.764v-3.788h-.764ZM38.593 85.156v3.788h2.633v-.586h-1.861v-1.081h1.592v-.586h-1.592v-.949h1.853v-.586h-2.625ZM41.898 85.156v.586h1.082v3.202h.772v-3.202h1.089v-.586h-2.943ZM46.519 85.156h-.772v3.788h.772v-3.788ZM50.623 87.653l.007.014c.007.405-.121.733-.375.97-.262.237-.623.356-1.083.356-.46 0-.835-.147-1.125-.44-.29-.293-.432-.669-.432-1.13v-.753c0-.461.142-.838.425-1.131.283-.293.644-.446 1.097-.446.474 0 .842.118 1.111.363.269.244.396.565.389.983l-.007.014h-.75c0-.251-.064-.439-.184-.572-.121-.132-.312-.195-.566-.195a.637.637 0 0 0-.552.279c-.135.181-.205.418-.205.705v.753c0 .293.07.53.212.712a.698.698 0 0 0 .58.279c.241 0 .418-.063.538-.188.113-.126.17-.315.17-.573h.75ZM54.118 86.788h-.771v.677h.771v-.677ZM59.029 87.953a.418.418 0 0 0-.155-.348c-.107-.091-.291-.175-.553-.252-.459-.132-.799-.286-1.033-.46a.883.883 0 0 1-.353-.733c0-.307.134-.565.403-.76.269-.196.608-.293 1.026-.293.425 0 .764.111 1.033.335.269.223.396.495.382.816l-.007.014h-.743a.542.542 0 0 0-.177-.426c-.12-.104-.283-.16-.502-.16-.205 0-.368.042-.481.132a.423.423 0 0 0-.17.349.36.36 0 0 0 .177.314c.12.084.325.168.622.265.425.119.743.273.963.461.219.188.325.439.325.754a.887.887 0 0 1-.389.767c-.262.188-.601.279-1.026.279-.417 0-.785-.105-1.097-.321-.311-.209-.46-.509-.453-.893l.007-.014h.751c0 .223.07.391.212.495.141.105.332.161.587.161.212 0 .368-.042.481-.126a.45.45 0 0 0 .17-.356ZM60.529 85.156v.586h1.083v3.202h.764v-3.202h1.09v-.586h-2.937ZM67.329 87.388c0 .468-.148.852-.445 1.152-.297.3-.687.453-1.161.453s-.856-.153-1.153-.453c-.297-.3-.446-.691-.446-1.152v-.683c0-.461.149-.845.439-1.152.297-.307.679-.453 1.153-.453s.863.153 1.168.453c.297.307.445.691.445 1.152v.683Zm-.764-.683c0-.294-.078-.538-.226-.726a.745.745 0 0 0-.616-.286c-.262 0-.467.098-.608.286-.142.188-.22.432-.22.726v.69c0 .3.071.544.22.733a.729.729 0 0 0 .608.286c.262 0 .474-.098.616-.286.148-.189.219-.433.219-.733v-.69h.007ZM69.134 87.43v1.514h-.771v-3.788h1.45c.439 0 .779.097 1.026.293.248.195.368.474.368.823a.797.797 0 0 1-.156.502c-.106.14-.254.259-.459.342.226.07.389.175.488.328.099.154.148.342.148.572v.279c0 .105.015.217.043.335a.46.46 0 0 0 .149.258v.056h-.793c-.071-.056-.12-.146-.134-.279a2.197 2.197 0 0 1-.029-.37v-.265c0-.188-.049-.335-.155-.439a.61.61 0 0 0-.446-.161h-.729Zm0-.586h.665c.219 0 .375-.042.481-.132.106-.091.163-.224.163-.405 0-.175-.05-.314-.163-.412-.106-.104-.262-.153-.474-.153h-.672v1.102ZM72.375 85.156v3.788H75v-.586h-1.854v-1.081h1.585v-.586h-1.585v-.949H75v-.586h-2.625ZM69.65 67.601h-2.773l-5.548 8.736-5.541-8.736h-8.052v12.964h5.356v-8.771l5.562 8.771h5.357l5.639-8.889v8.889H75V67.601h-5.35ZM21.886 76.099l-.014-.069a1.841 1.841 0 0 0-.07-.252c-.758-2.121-5.201-3.656-10.586-3.67h-.602c-1.068 0-2.455.028-3.736.224-.474.069-.885-.14-.941-.475-.05-.3.205-.6.601-.718 0 0 .015-.007.029-.007.736-.189 2.682-.307 4.054-.307h.602c3.177.007 6.114.537 8.279 1.493l1.67-2.631c-2.144-1.36-6.029-2.246-9.949-2.253h-.602c-.184 0-.375 0-.559.007C4.416 67.538 0 69.457 0 71.787c0 .098.014.203.035.321.015.091.064.252.099.356l.029.07a1.5 1.5 0 0 0 .191.342l.028.042c.035.049.071.104.113.153 1.444 1.814 5.414 2.993 10.112 2.993h.602c1.061 0 2.413-.028 3.665-.216.474-.077.885.133.941.475.05.307-.212.614-.622.725-.729.189-2.612.3-3.984.307h-.595c-3.538 0-6.708-.628-8.937-1.772L.071 78.116c.113.09.226.181.346.258 2.116 1.444 6.121 2.372 10.204 2.372h.602c.254 0 .523-.007.821-.014l.127-.007c.255-.007.531-.021.828-.049l.149-.014c.29-.021.551-.048.806-.076l.12-.014c.305-.035.567-.07.814-.112.17-.028.333-.056.496-.077a19.288 19.288 0 0 0 1.846-.418c.283-.077.559-.168.835-.259.163-.055.326-.118.517-.188l.12-.049c.191-.076.347-.146.481-.202.142-.063.29-.14.446-.223l.099-.056c.163-.091.29-.161.404-.23.191-.119.368-.238.53-.363.085-.063.17-.133.262-.217l.05-.041c.078-.077.134-.126.184-.182l.07-.077c.05-.055.092-.111.142-.16l.057-.07c.063-.084.113-.16.155-.23a1.97 1.97 0 0 0 .198-.412 1.6 1.6 0 0 0 .078-.279l.014-.07c.014-.104.029-.195.029-.279a1.27 1.27 0 0 0-.015-.279ZM43.681 74.083c1.26-.677 2.059-1.682 2.059-2.805 0-2.03-2.597-3.677-5.802-3.677H23.903V80.558h16.028c3.205 0 5.802-1.647 5.802-3.677.007-1.117-.792-2.121-2.052-2.798Zm-4.741 3.056h-9.723v-1.361h9.723c.58 0 1.047.307 1.047.684 0 .37-.467.677-1.047.677Zm0-4.752h-9.723v-1.36h9.723c.58 0 1.047.307 1.047.677 0 .384-.467.683-1.047.683Z"/></g></svg>